<svg width="16" height="16" xmlns="http://www.w3.org/2000/svg"><g fill-rule="evenodd"><path fill="#9aa7b0" fill-opacity=".8" d="M7 1L3 5h4z"/><path fill="#9aa7b0" fill-opacity=".8" d="M8 1v5H3v2h10V1z"/><path fill="#c6a700" fill-opacity=".7" d="M1 16h15V9H1z"/></g><path d="M2 15v-5h1.503l.976 3 1.018-3H7v5H6v-4l-1 3H4l-1-3v4z" opacity=".85"/><path d="M8 10v1h1v1h1v-1H8v4h1v-2c2 0 2 0 2.014-1.543C11.027 10 11 10 9 10zM12 10v1h1v1h1v-1h-2v4h1v-2c.089 0 .878 2 .878 2H15l-.833-2c.833 0 .836-.313.847-1.543C15.027 10 15 10 13 10z" fill-rule="evenodd" opacity=".85"/></svg>