<?xml version="1.0" encoding="UTF-8" standalone="no"?>
<!-- Created with Inkscape (http://www.inkscape.org/) -->

<svg
	xmlns="http://www.w3.org/2000/svg"
	width="16"
	height="16"
	viewBox="0 0 8.4666659 8.4666659">
	<g transform="translate(0,-288.53334)">
		<g transform="matrix(11.351885,0,0,11.90625,8.5863499,25.329607)">
			<g style="fill:none;fill-rule:evenodd">
				<g style="clip-rule:evenodd;fill-rule:evenodd;stroke-linejoin:round;stroke-miterlimit:1.41420996"
					 transform="matrix(0.02330744,0,0,0.02222222,-16.67369,-7.6365565)"/>
				<g transform="matrix(0.02118858,0,0,0.02230795,0.08984213,22.691823)">
					<g style="fill:#9aa7b0"
						 transform="translate(-37.337703,-24.252713)">
						<path d="M 12,0 4,8 h 8 z"
									style="opacity:0.7;isolation:isolate"/>
						<path
							d="M 14,0 V 10 H 4 V 30 L 9.6924574,29.884711 C 9.650427,13.946199 8.7799125,15.643802 11.229972,13.302512 14.122555,10.538345 13.772332,11.953885 26,11.428578 L 26,0 Z"
							style="opacity:0.7;isolation:isolate"/>
					</g>
				</g>
				<g transform="matrix(0.05540863,0,0,0.05282876,-0.41942207,7.1443203)"/>
			</g>
			<g style="fill:#000000;stroke:none"
				 transform="matrix(1.0467256e-4,0,0,-9.9798926e-5,-0.53122843,22.755259)">
				<path style="stroke-width:1.86229157"
							d="M 1312.6929,3202.8216 C 1082.3295,3158.3792 840.72853,2980.6095 730.22887,2776.9151 627.22073,2584.3313 617.85629,2523.223 617.85629,1988.0622 V 1501.0473 H 786.4151 954.97391 v 472.2007 c 0,559.2338 11.23725,612.935 170.43149,759.2246 121.737,112.9579 202.2706,144.4379 363.3379,146.2897 155.4486,0 264.0754,-44.4424 372.7021,-151.845 140.4657,-135.179 151.7029,-175.9179 157.3215,-553.6784 l 7.4915,-338.8735 h -179.7959 -177.9232 l -5.6186,199.9909 -5.6187,198.1391 h -168.5587 -168.5588 l -5.6187,-364.7981 -5.6186,-366.65 h 524.4051 526.278 v 487.0149 c 0,266.6544 -9.3644,522.1984 -20.6017,566.6407 -103.0081,444.4243 -567.4812,737.0035 -1026.3357,648.1187 z"/>
				<path style="stroke-width:1.87747014"
							d="m 3340.9571,3170.2315 c -239.1553,-81.0642 -394.1278,-217.3993 -510.8356,-449.5375 -57.3972,-116.0691 -68.8767,-158.4436 -76.5298,-305.8328 -15.3058,-278.1974 66.9635,-482.7002 265.9408,-665.0944 122.4475,-114.2268 296.5524,-200.818 455.3515,-230.2959 57.3973,-9.2118 317.5984,-18.4236 577.7992,-18.4236 h 476.3975 v 515.8625 515.8629 h -382.6486 -382.6485 v -165.813 -165.8131 h 210.4566 210.4568 v -186.079 -186.0791 l -338.6439,7.3695 c -265.9406,5.5271 -355.8631,14.7389 -413.2603,38.6897 -130.1005,55.271 -220.0229,138.1775 -283.1598,261.6161 -55.4842,108.6995 -59.3106,130.8081 -51.6577,256.0889 11.4795,154.7589 63.137,261.6161 177.9316,357.4192 145.4063,123.4385 139.6666,123.4385 723.2054,128.9657 l 529.9684,5.5271 v 165.8129 163.9707 h -529.9684 c -507.0091,0 -537.6209,-1.8424 -658.1552,-44.2168 z"/>
				<path
					d="m 3471.0528,1093.452 c -313.6296,-59.7773 -606.4765,-341.85174 -678.2713,-653.81471 -11.3361,-44.833 -20.7826,-302.62279 -20.7826,-571.6208 v -491.29502 h 529.0137 529.0142 l -3.7789,369.8723 -5.668,368.00423 h -170.0402 -170.0401 l -5.668,-199.88046 -5.668,-201.74852 h -179.4869 -181.3762 l 7.5574,341.851643 c 5.668,381.080527 17.004,422.177447 158.7042,558.544507 109.5813,108.34643 219.1629,153.17943 375.9776,153.17943 162.4831,-1.86804 243.7243,-33.62475 366.531,-147.5753 160.5936,-147.57531 171.9295,-201.74851 171.9295,-765.89715 v -476.35068 h 170.0403 170.0402 v 491.29502 c 0,353.0599 -7.5574,515.57954 -26.4505,584.69708 -120.9177,450.19809 -570.5793,728.53623 -1031.5774,640.73843 z"
					style="fill:#000000;stroke:none;stroke-width:1.87865841"/>
				<path
					d="M 620.28668,555.09985 V 49.411804 h 377.54475 375.68507 l -5.5795,165.497906 -5.5795,163.65905 -199.0013,5.51658 -199.00156,5.5166 v 165.49791 165.49794 l 323.60986,5.5166 c 305.0115,3.67773 327.3293,1.83887 418.4609,-38.61618 275.2543,-125.0429 394.2834,-439.48891 264.0954,-700.607835 -57.6546,-114.009665 -146.9263,-200.436355 -269.6749,-257.441185 -79.9725,-34.93845 -122.7485,-38.61617 -582.1256,-44.13277 l -498.43362,-5.5166 v -165.49791 -165.4979 l 526.33092,5.51659 c 489.1345,5.5166 531.9104,9.19434 636.0607,47.81051 593.2846,218.82482 769.9681,945.17693 340.3485,1393.86026 -115.3095,119.52624 -213.8802,182.04758 -370.1058,229.85803 -98.5707,31.2608 -174.8236,34.9385 -623.0417,34.9385 H 620.28668 Z"
					style="fill:#000000;stroke:none;stroke-width:1.84931636"/>
			</g>
		</g>
	</g>
</svg>
