<?xml version="1.0" encoding="UTF-8" standalone="no"?>
<svg
	xmlns="http://www.w3.org/2000/svg"
	width="16"
	height="16"
	viewBox="0 0 512.000000 512.000000">
	<g
		transform="matrix(0.13228804,0,0,-0.13341146,-81.311855,428.8475)"
		style="fill:#000000;fill-opacity:0.7764706;stroke:#000000;stroke-width:0;stroke-linecap:butt;stroke-linejoin:miter;stroke-miterlimit:4;stroke-dasharray:none;stroke-opacity:1">
		<path
			d="M 1304.8619,3202.8216 C 1077.0947,3158.3792 838.21666,2980.6095 728.9624,2776.9151 627.11517,2584.3313 617.85633,2523.223 617.85633,1988.0622 v -487.0149 h 166.6591 166.6591 v 472.2007 c 0,559.2338 11.11058,612.935 168.51067,759.2246 120.3649,112.9579 199.9909,144.4379 359.2429,146.2897 153.6967,0 261.0992,-44.4424 368.5016,-151.845 138.8827,-135.179 149.9932,-175.9179 155.5485,-553.6784 l 7.4071,-338.8735 h -177.7696 -175.9179 l -5.5553,199.9909 -5.5554,198.1391 h -166.659 -166.6591 l -5.5553,-364.7981 -5.5553,-366.65 h 518.4949 520.3466 v 487.0149 c 0,266.6544 -9.2588,522.1984 -20.3695,566.6407 -101.8471,444.4243 -561.0855,737.0035 -1014.7685,648.1187 z"/>
		<path
			d="m 3310.2669,3170.2315 c -236.46,-81.0642 -389.6859,-217.3993 -505.0783,-449.5375 -56.7504,-116.0691 -68.1005,-158.4436 -75.6673,-305.8328 -15.1333,-278.1974 66.2088,-482.7002 262.9435,-665.0944 121.0675,-114.2268 293.2102,-200.818 450.2196,-230.2959 56.7504,-9.2118 314.0189,-18.4236 571.2872,-18.4236 h 471.0283 v 515.8625 515.8629 h -378.336 -378.3359 v -165.813 -165.8131 h 208.0847 208.0849 v -186.079 -186.0791 l -334.8273,7.3695 c -262.9434,5.5271 -351.8524,14.7389 -408.6027,38.6897 -128.6343,55.271 -217.5432,138.1775 -279.9685,261.6161 -54.8589,108.6995 -58.6422,130.8081 -51.0755,256.0889 11.3501,154.7589 62.4254,261.6161 175.9262,357.4192 143.7675,123.4385 138.0925,123.4385 715.0547,128.9657 l 523.9954,5.5271 v 165.8129 163.9707 h -523.9954 c -501.295,0 -531.5618,-1.8424 -650.7376,-44.2168 z"/>
		<path
			d="m 3438.8964,1093.452 c -310.0949,-59.7773 -599.6414,-341.85174 -670.627,-653.81471 -11.2083,-44.833 -20.5484,-302.62279 -20.5484,-571.6208 v -491.29502 h 523.0516 523.052 l -3.7363,369.8723 -5.6041,368.00423 h -168.1238 -168.1237 l -5.6041,-199.88046 -5.6042,-201.74852 h -177.464 -179.332 l 7.4722,341.851643 c 5.6041,381.080527 16.8124,422.177447 156.9156,558.544507 108.3463,108.34643 216.6928,153.17943 371.7402,153.17943 160.6518,-1.86804 240.9774,-33.62475 362.4001,-147.5753 158.7836,-147.57531 169.9918,-201.74851 169.9918,-765.89715 v -476.35068 h 168.1238 168.1238 v 491.29502 c 0,353.0599 -7.4722,515.57954 -26.1524,584.69708 -119.5549,450.19809 -564.1486,728.53623 -1019.9511,640.73843 z"/>
		<path
			d="M 620.25933,555.09985 V 49.411804 H 993.549 1365 l -5.5167,165.497906 -5.5166,163.65905 -196.7585,5.51658 -196.75873,5.5166 v 165.49791 165.49794 l 319.96273,5.5166 c 301.5739,3.67773 323.6402,1.83887 413.7447,-38.61618 272.1521,-125.0429 389.8397,-439.48891 261.1189,-700.607835 -57.0048,-114.009665 -145.2704,-200.436355 -266.6355,-257.441185 -79.0712,-34.93845 -121.3651,-38.61617 -575.5649,-44.13277 l -492.81607,-5.5166 v -165.49791 -165.4979 l 520.39897,5.51659 c 483.6218,5.5166 525.9156,9.19434 628.8921,47.81051 586.5981,218.82482 761.2903,945.17693 336.5126,1393.86026 -114.0099,119.52624 -211.4697,182.04758 -365.9345,229.85803 -97.4598,31.2608 -172.8533,34.9385 -616.0199,34.9385 H 620.25933 Z"/>
	</g>
</svg>
