<?xml version="1.0" encoding="UTF-8"?>
<svg width="16" height="16" version="1.1" viewBox="0 0 8.4666659 8.4666659" xmlns="http://www.w3.org/2000/svg">
	<g transform="translate(0 -288.53)">
		<g transform="matrix(11.352 0 0 11.906 8.5863 25.33)">
			<g fill="none" fill-rule="evenodd">
				<g transform="matrix(.021189 0 0 .022308 .089842 22.692)">
					<g transform="translate(-37.338 -24.253)" fill="#9aa7b0">
						<path d="m12 0-8 8h8z" opacity=".7" style="isolation:isolate"/>
						<path
							d="m14 0v10h-10v20l7.706-0.11529c-0.02102-7.9693-0.48973-10.951 0.12907-14.247 0.51186-2.7268 1.0824-2.9866 2.5271-3.4156 4.2399-1.2592 2.7633-0.67327 11.563-0.52321l0.074576-11.699z"
							opacity=".7" style="isolation:isolate"/>
					</g>
				</g>
			</g>
			<g
				style="fill:#ffffff;fill-opacity:0.7764706;stroke:#000000;stroke-width:0;stroke-linecap:butt;stroke-linejoin:miter;stroke-miterlimit:4;stroke-dasharray:none;stroke-opacity:1"
				transform="matrix(.00010467 0 0 -9.9799e-5 -.53123 22.755)">
				<path
					d="m1758 3202.8c-230.36-44.442-471.96-222.21-582.46-425.91-103.01-192.58-112.37-253.69-112.37-788.85v-487.01h337.12v472.2c0 559.23 11.237 612.94 170.43 759.22 121.74 112.96 202.27 144.44 363.34 146.29 155.45 0 264.08-44.442 372.7-151.84 140.47-135.18 151.7-175.92 157.32-553.68l7.4915-338.87h-357.72l-5.6186 199.99-5.6187 198.14h-337.12l-5.6187-364.8-5.6186-366.65h1050.7v487.01c0 266.65-9.3644 522.2-20.602 566.64-103.01 444.42-567.48 737-1026.3 648.12z"/>
				<path
					d="m3786.3 3170.2c-239.16-81.064-394.13-217.4-510.84-449.54-57.397-116.07-68.877-158.44-76.53-305.83-15.306-278.2 66.964-482.7 265.94-665.09 122.45-114.23 296.55-200.82 455.35-230.3 57.397-9.2118 317.6-18.424 577.8-18.424h476.4v1031.7h-765.3v-331.63h420.91v-372.16l-338.64 7.3695c-265.94 5.5271-355.86 14.739-413.26 38.69-130.1 55.271-220.02 138.18-283.16 261.62-55.484 108.7-59.311 130.81-51.658 256.09 11.48 154.76 63.137 261.62 177.93 357.42 145.41 123.44 139.67 123.44 723.21 128.97l529.97 5.5271v329.78h-529.97c-507.01 0-537.62-1.8424-658.16-44.217z"/>
				<path
					d="m3916.4 1093.5c-313.63-59.777-606.48-341.85-678.27-653.81-11.336-44.833-20.783-302.62-20.783-571.62v-491.3h1058l-3.7789 369.87-5.668 368h-340.08l-5.668-199.88-5.668-201.75h-360.86l7.5574 341.85c5.668 381.08 17.004 422.18 158.7 558.54 109.58 108.35 219.16 153.18 375.98 153.18 162.48-1.868 243.72-33.625 366.53-147.58 160.59-147.58 171.93-201.75 171.93-765.9v-476.35h340.08v491.3c0 353.06-7.5574 515.58-26.45 584.7-120.92 450.2-570.58 728.54-1031.6 640.74z"/>
				<path
					d="m1065.6 555.1v-505.69h753.23l-5.5795 165.5-5.5795 163.66-199 5.5166-199 5.5166v331l323.61 5.5166c305.01 3.6777 327.33 1.8389 418.46-38.616 275.25-125.04 394.28-439.49 264.1-700.61-57.655-114.01-146.93-200.44-269.67-257.44-79.972-34.938-122.75-38.616-582.13-44.133l-498.43-5.5166v-331l526.33 5.5166c489.13 5.5166 531.91 9.1943 636.06 47.811 593.28 218.82 769.97 945.18 340.35 1393.9-115.31 119.53-213.88 182.05-370.11 229.86-98.571 31.261-174.82 34.938-623.04 34.938h-509.59z"/>
			</g>
		</g>
	</g>
</svg>
