<svg xmlns="http://www.w3.org/2000/svg" width="16" height="16" viewBox="0 0 512 512"><g fill-opacity=".776" stroke="none" stroke-width="0"><path d="M91.306 1.554C61.175 7.484 29.574 31.2 15.12 58.375 1.648 84.068.423 92.221.423 163.617v64.974h44.094v-62.997c0-74.609 1.47-81.773 22.292-101.29 15.923-15.07 26.457-19.27 47.524-19.516 20.332 0 34.54 5.929 48.748 20.257 18.373 18.035 19.842 23.47 20.577 73.868l.98 45.21H137.85l-.734-26.682-.735-26.434H92.286l-.735 48.668-.735 48.916h137.426v-64.974c0-35.575-1.225-69.667-2.694-75.596C212.074 28.73 151.323-10.304 91.306 1.554zM356.597 5.902c-31.281 10.815-51.55 29.004-66.816 59.974-7.507 15.485-9.009 21.138-10.01 40.801-2.002 37.115 8.759 64.398 34.784 88.732 16.016 15.239 38.789 26.791 59.56 30.724 7.507 1.229 41.54 2.458 75.574 2.458H512V90.947H411.901v44.242h55.055v49.65l-44.294-.983c-34.784-.737-46.546-1.966-54.053-5.161-17.017-7.374-28.779-18.435-37.037-34.903-7.257-14.502-7.757-17.451-6.756-34.165 1.501-20.647 8.258-34.903 23.272-47.684 19.02-16.468 18.268-16.468 94.594-17.205L512 44V.003h-69.318c-66.316 0-70.32.246-86.085 5.9zM373.613 282.968c-41.022 7.975-79.325 45.607-88.716 87.227-1.483 5.981-2.718 40.373-2.718 76.26V512h138.387l-.495-49.345-.74-49.096h-44.482l-.742 26.666-.741 26.916h-47.2l.989-45.607c.74-50.84 2.224-56.324 20.758-74.516 14.333-14.455 28.665-20.436 49.176-20.436 21.253.249 31.879 4.486 47.942 19.688 21.005 19.688 22.487 26.915 22.487 102.18V512H512v-65.544c0-47.103-.988-68.785-3.46-78.006-15.815-60.061-74.63-97.195-134.927-85.482zM.741 354.79v67.465h98.52l-.73-22.079-.73-21.834-26.028-.736-26.029-.736v-44.159l42.327-.735c39.895-.491 42.814-.246 54.734 5.151 36.002 16.683 51.571 58.633 34.543 93.47-7.541 15.21-19.218 26.74-35.273 34.345-10.46 4.661-16.055 5.152-76.14 5.888l-65.194.736v44.159l68.843-.736c63.977-.736 69.572-1.227 83.194-6.379 77.6-29.194 100.71-126.097 44.517-185.957-15.082-15.946-27.975-24.287-48.409-30.666-12.892-4.17-22.866-4.66-81.492-4.66H.741z"/></g></svg>