<svg width="16" height="16" viewBox="0 0 8.467 8.467" xmlns="http://www.w3.org/2000/svg"><g fill="#9aa7b0" fill-rule="evenodd"><path d="M3.511.53L1.587 2.653h1.924z" opacity=".7" style="isolation:isolate"/><path d="M3.993.53v2.655H1.587v5.312l1.854-.03c-.005-2.117-.118-2.909.03-3.784.124-.724.261-.793.609-.907 1.02-.335.664-.18 2.781-.14L6.879.53z" opacity=".7" style="isolation:isolate"/></g><g fill="#fff" fill-opacity=".776" stroke="none" stroke-width="0"><path d="M4.645 3.915a1.08 1.08 0 0 0-.692.507c-.123.228-.134.3-.134.937v.578h.4v-.56c0-.665.014-.729.203-.903a.542.542 0 0 1 .432-.174c.185 0 .314.053.443.18.167.162.18.21.187.659l.009.402h-.426l-.006-.237-.007-.236h-.4l-.007.434-.007.435H5.89V5.36c0-.317-.011-.62-.025-.673-.122-.529-.674-.876-1.22-.77zM7.055 3.954a.987.987 0 0 0-.607.534.716.716 0 0 0-.091.364c-.018.33.08.573.316.79.145.136.352.239.54.274.069.01.378.022.687.022h.566V4.712h-.909v.394h.5v.442l-.402-.009c-.316-.006-.423-.017-.491-.046a.638.638 0 0 1-.337-.31c-.066-.13-.07-.156-.061-.305a.558.558 0 0 1 .211-.425c.173-.146.166-.146.86-.153l.63-.006v-.392h-.63c-.603 0-.64.002-.782.052zM7.21 6.422c-.373.07-.721.406-.807.777-.013.053-.024.36-.024.679v.584h1.257l-.005-.44-.006-.437H7.22l-.006.237-.007.24h-.429l.01-.406c.006-.453.02-.502.188-.664a.579.579 0 0 1 .447-.182c.193.002.29.04.435.176.19.175.204.24.204.91v.566h.404v-.584c0-.42-.009-.613-.031-.695a1.06 1.06 0 0 0-1.226-.761zM3.822 7.061v.601h.895l-.007-.196-.006-.195-.237-.006-.236-.007v-.393l.384-.007c.363-.004.39-.002.498.046a.615.615 0 0 1 .313.833.658.658 0 0 1-.32.305c-.095.042-.146.046-.692.053l-.592.006v.394l.625-.007c.582-.006.632-.01.756-.057.705-.26.915-1.123.405-1.656a.93.93 0 0 0-.44-.273c-.117-.037-.208-.041-.74-.041h-.606z"/></g></svg>