<svg xmlns="http://www.w3.org/2000/svg" width="16" height="16" viewBox="0 0 8.467 8.467"><g fill="none" fill-rule="evenodd"><g fill="#9aa7b0"><path d="M3.512.53L1.587 2.653h1.925z" style="isolation:isolate" opacity=".7"/><path d="M3.993.53v2.655H1.587v5.312l3.133-.03c-.49-.195-.97-1.05-.484-2.069.27-.57.14-.864-.044-2.068-.164-1.074.181-1.203.727-1.066.816.205.867 3.152 1.96 2.083V.529z" style="isolation:isolate" opacity=".7"/></g><g fill-opacity=".776"><path d="M4.52 3.51l.352 2.435-.352 1.321.358.895c1.252.357 2.146.357 3.22 0l.357-.895-.293-1.257.293-2.499c-.894 0-.906 2.504-1.967 2.504-1.062 0-1.073-2.504-1.968-2.504z" fill="#fff"/><path d="M5.408 6.303l.537.268v.269l-.268-.269zM7.555 6.303l-.537.268v.269l.268-.269z" fill="#ff0056"/></g></g></svg>