<svg xmlns="http://www.w3.org/2000/svg" width="16" height="16" viewBox="0 0 8.467 8.467"><g fill="none" fill-rule="evenodd"><g fill="#9aa7b0"><path d="M3.511.53L1.587 2.653h1.924z" opacity=".7" style="isolation:isolate"/><path d="M3.993.53v2.655H1.587v5.312l3.132-.03c-.49-.195-.968-1.05-.483-2.069.27-.57.14-.863-.045-2.068-.164-1.074.182-1.203.728-1.066.816.205.867 3.152 1.96 2.083V.529z" opacity=".7" style="isolation:isolate"/></g><g fill-opacity=".776" stroke-width="0"><path fill="#000" d="M4.52 3.51l.352 2.435-.352 1.321.358.895c1.252.357 2.146.357 3.22 0l.357-.895-.293-1.257.293-2.499c-.894 0-.906 2.504-1.967 2.504S5.415 3.51 4.52 3.51z"/><path fill="#66f" d="M5.408 6.303l.537.268v.268l-.268-.268zM7.555 6.303l-.537.268v.268l.268-.268z"/></g></g></svg>