<?xml version="1.0" encoding="UTF-8" standalone="no"?>
<!-- Created with Inkscape (http://www.inkscape.org/) -->

<svg
	xmlns="http://www.w3.org/2000/svg"
	width="16"
	height="16"
	viewBox="0 0 8.4666659 8.4666659"
	version="1.1"
	id="svg8">
	<g
		id="layer1"
		transform="translate(0,-288.53334)">
		<g
			id="g3813"
			transform="matrix(11.351885,0,0,11.90625,8.5863499,25.329607)">
			<g
				id="g3795"
				style="fill:none;fill-rule:evenodd">
				<g
					style="clip-rule:evenodd;fill-rule:evenodd;stroke-linejoin:round;stroke-miterlimit:1.41420996"
					id="g3913"
					transform="matrix(0.02330744,0,0,0.02222222,-16.67369,-7.6365565)"/>
				<g
					id="g4110"
					transform="matrix(0.02118858,0,0,0.02230795,0.08984213,22.691823)">
					<g
						id="g4085"
						style="fill:#9aa7b0"
						transform="translate(-37.337703,-24.252713)">
						<path
							id="path4081"
							d="M 12,0 4,8 h 8 z"
							style="opacity:0.7;isolation:isolate"/>
						<path
							id="path4083"
							d="M 14,0 V 10 H 4 v 20 l 13.022397,-0.116634 c -2.036215,-0.73137 -4.027913,-3.948777 -2.011837,-7.787152 1.126349,-2.14444 0.58095,-3.251396 -0.183918,-7.787487 -0.68188,-4.043924 0.754028,-4.5283648 3.024353,-4.011935 C 21.242974,11.068364 21.456603,22.162154 26,18.137311 V 0 Z"
							style="opacity:0.7;isolation:isolate"/>
					</g>
				</g>
				<g
					transform="matrix(0.05540863,0,0,0.05282876,-0.41942207,7.1443203)"
					id="layer1-1">
					<path
						d="m 1.1051412,288.79789 0.5587648,3.87191 -0.5587648,2.10009 0.5687626,1.42191 c 1.9906686,0.56876 3.4125746,0.56876 5.118862,0 l 0.5687625,-1.42191 -0.4671184,-1.99844 0.4671184,-3.97356 c -1.4219062,0 -1.4404408,3.98133 -3.1281936,3.98133 -1.6877528,0 -1.7062875,-3.98133 -3.1281935,-3.98133 z"
						style="fill:#ffffff;fill-opacity:0.77647059;stroke:#000000;stroke-width:0;stroke-linecap:butt;stroke-linejoin:miter;stroke-miterlimit:4;stroke-dasharray:none;stroke-opacity:1"
						id="path20-2"/>
					<path
						id="path5138-7"
						d="m 2.5170496,293.23857 0.8531437,0.42657 v 0.42658 l -0.4265719,-0.42658 z"
						style="fill:#ff0056;fill-opacity:0.77647059;stroke:#0000ff;stroke-width:0;stroke-linecap:butt;stroke-linejoin:miter;stroke-miterlimit:8;stroke-dasharray:none;stroke-opacity:0.77647059"/>
					<path
						id="path5138-3-0"
						d="m 5.9296245,293.23857 -0.8531438,0.42657 v 0.42658 l 0.426572,-0.42658 z"
						style="opacity:1;fill:#ff0056;fill-opacity:0.77647059;stroke:#0000ff;stroke-width:0;stroke-linecap:butt;stroke-linejoin:miter;stroke-miterlimit:8;stroke-dasharray:none;stroke-opacity:0.77647059"/>
				</g>
			</g>
		</g>
	</g>
</svg>
