<?xml version="1.0" encoding="UTF-8"?>
<svg xmlns="http://www.w3.org/2000/svg" width="16" height="16" viewBox="0 0 8.4666659 8.4666659">
	<g transform="translate(0 -288.53)">
		<g transform="matrix(11.352 0 0 11.906 8.5863 25.33)">
			<g fill="none" fill-rule="evenodd">
				<g transform="matrix(.021189 0 0 .022308 .089842 22.692)">
					<g fill="#9aa7b0" transform="translate(-37.338 -24.253)">
						<path d="m12 0-8 8h8z" opacity=".7" style="isolation:isolate"/>
						<path d="m14 0v10h-10v20l13.022-0.11663c-2.0362-0.73137-4.0279-3.9488-2.0118-7.7872 1.1263-2.1444 0.58095-3.2514-0.18392-7.7875-0.68188-4.0439 0.75403-4.5284 3.0244-4.0119 3.392 0.77157 3.6056 11.865 8.149 7.8405v-18.137z" opacity=".7" style="isolation:isolate"/>
					</g>
				</g>
				<g fill-opacity=".77647" stroke-width="0" transform="matrix(.055409 0 0 .052829 -.41942 7.1443)">
					<path fill="#000" d="m1.1051 288.8 0.55876 3.8719-0.55876 2.1001 0.56876 1.4219c1.9907 0.56876 3.4126 0.56876 5.1189 0l0.56876-1.4219-0.46712-1.9984 0.46712-3.9736c-1.4219 0-1.4404 3.9813-3.1282 3.9813s-1.7063-3.9813-3.1282-3.9813z"/>
					<path fill="#66f" stroke-miterlimit="8" d="m2.517 293.24 0.85314 0.42657v0.42658l-0.42657-0.42658z"/>
					<path fill="#66f" stroke-miterlimit="8" d="m5.9296 293.24-0.85314 0.42657v0.42658l0.42657-0.42658z"/>
				</g>
			</g>
		</g>
	</g>
</svg>
