<svg height="16" viewBox="0 0 16 16" width="16" xmlns="http://www.w3.org/2000/svg">
	<g fill="none" fill-rule="evenodd">
		<polygon fill-opacity=".8" fill="#9aa7b0" points="7,1 3,5 7,5"/>
		<polygon fill-opacity=".8" fill="#9aa7b0" points="8,1 8,6 3,6 3,8 13,8 13,1"/>
		<polygon fill-opacity=".7" fill="#00766c" points="1,16 16,16 16,9 1,9"/>
	</g>
	<path
		style="opacity:0.85;fill:#000000;fill-opacity:0.93048126;stroke:none;stroke-width:0.91287094px;stroke-linecap:butt;stroke-linejoin:miter;stroke-opacity:1"
		d="m 2,10 v 5 H 2.8333333 V 11 L 4,14 h 1 l 1.1666667,-3 v 4 H 7 V 10 H 5.4788335 L 4.5,13 3.5348332,10 Z"/>
	<path
		style="opacity:0.85;fill:#000000;fill-opacity:1;stroke:none;stroke-width:1px;stroke-linecap:butt;stroke-linejoin:miter;stroke-opacity:1"
		d="m 8,10 v 1 h 1 v 4 h 1 v -4 h 1 V 10 H 8 v 0"/>
	<path
		style="opacity:0.85;fill:#000000;fill-opacity:1;stroke:none;stroke-width:1px;stroke-linecap:butt;stroke-linejoin:miter;stroke-opacity:1"
		d="m 12,10 v 1 h 1 v 4 h 1 v -4 h 1 v -1 h -3 v 0"/>
</svg>
