<?xml version="1.0" encoding="UTF-8" standalone="no"?>
<svg xmlns="http://www.w3.org/2000/svg" width="16" height="16">
	<g fill-rule="evenodd">
		<path
			d="M7 1L3 5h4z"
			fill="#9aa7b0"
			fill-opacity=".8"/>
		<path
			d="M 8,1 V 6 H 3 v 9 H 7.4237288 C 6.6440678,12.531073 6.5084746,10.367232 8,8 10,7 10,7 13,7.1186441 V 1 Z"
			style="fill:#9aa7b0;fill-opacity:0.8"/>
		<g transform="matrix(0.48986531,0,0,0.48986531,7.51949,-129.84194)">
			<path
				d="m 8.0123603,281.76559 c -8.69467733,0 -6.9557418,10.43361 -5.2168064,13.91149 l 1.7389355,-8.69468 h 1.7389355 c 1.7389354,-5.21681 1.7389354,-5.21681 3.5136238,0 h 1.7031823 l 1.738936,8.69468 c 1.738936,-3.47788 3.477871,-13.91149 -5.2168067,-13.91149 z"
				style="fill:#ffcc99;fill-opacity:1;stroke:#ffcc99;stroke-width:0.34778708px;stroke-linecap:butt;stroke-linejoin:miter;stroke-opacity:1"/>
			<path
				d="m 8.0123605,287.51157 c -1.7389355,3.47786 -1.7389355,3.47786 0,5.2168 1.7389361,-1.73894 1.7389361,-1.73894 0,-5.2168"
				style="fill:#ffcc99;fill-opacity:1;stroke:none;stroke-width:0.34778708px;stroke-linecap:butt;stroke-linejoin:miter;stroke-opacity:1"/>
		</g>
	</g>
</svg>
