<svg width="16" height="16" viewBox="0 0 8.467 8.467" xmlns="http://www.w3.org/2000/svg"><g fill="#9aa7b0" fill-rule="evenodd"><path d="M3.511.53L1.587 2.653h1.924z" opacity=".7" style="isolation:isolate"/><path d="M3.993.53v2.655H1.587v5.312l2.371-.005c-.483-.986.145-.463-.046-1.423-.329-.287-.475-1.751.284-2.536.582-.603.854-.971 2.683-.975V.53z" opacity=".7" style="isolation:isolate"/></g><g transform="translate(79.497 79.55) scale(1.8967)"><circle transform="rotate(3.128) skewX(-.176)" cx="-40.792" cy="-36.46" r=".5" fill="#fff"/><circle cx="-38.447" cy="-38.792" r=".2"/><path d="M-38.627-39.245c-.618 0-.618.618-.618.618s0 .618.618.618.618-.618.618-.618 0-.618-.618-.618z" fill="none" stroke="#2b2b2b" stroke-opacity=".9" stroke-width=".3"/><path d="M-38.627-39.381v-.22.006" fill="none" stroke="#2b2b2b" stroke-opacity=".9" stroke-width=".261"/><path d="M-37.597-38.627c0-1.236-1.03-1.12-1.03-1.12s-1.03-.116-1.03 1.193" fill="none" stroke="#2b2b2b" stroke-opacity=".9" stroke-width=".3"/><path d="M-39.163-38.085l-.504.498" fill="none" stroke="#2b2b2b" stroke-opacity=".9" stroke-width=".271"/><path d="M-38.109-38.07l.48.501" fill="none" stroke="#2b2b2b" stroke-opacity=".9" stroke-width=".275"/><circle cx="-38.493" cy="-38.76" r=".038" fill="#f9f9f9" opacity=".771"/><circle cx="-38.434" cy="-38.86" r=".053" fill="#f9f9f9" opacity=".771"/></g></svg>