<svg width="16" height="16" viewBox="-40 -40 2.747 2.747" xmlns="http://www.w3.org/2000/svg"><circle transform="rotate(3.128) skewX(-.176)" cx="-40.792" cy="-36.46" r=".5" fill="#fff"/><circle cx="-38.447" cy="-38.792" r=".2"/><path d="M-38.627-39.245c-.618 0-.618.618-.618.618s0 .618.618.618.618-.618.618-.618 0-.618-.618-.618z" fill="none" stroke="#2B2B2B" stroke-opacity=".9" stroke-width=".3"/><path d="M-38.627-39.381v-.22.006" fill="none" stroke="#2b2b2b" stroke-opacity=".9" stroke-width=".261"/><path d="M-37.597-38.627c0-1.236-1.03-1.12-1.03-1.12s-1.03-.116-1.03 1.193" fill="none" stroke="#2B2B2B" stroke-opacity=".9" stroke-width=".3"/><path d="M-39.163-38.085l-.504.498" fill="none" stroke="#2b2b2b" stroke-opacity=".9" stroke-width=".271"/><path d="M-38.109-38.07l.48.501" fill="none" stroke="#2b2b2b" stroke-opacity=".9" stroke-width=".275"/><circle cx="-38.493" cy="-38.76" r=".038" fill="#f9f9f9" opacity=".771"/><circle cx="-38.434" cy="-38.86" r=".053" fill="#f9f9f9" opacity=".771"/></svg>