<?xml version="1.0" encoding="UTF-8"?>
<svg width="16" height="16" version="1.1" viewBox="0 0 8.4666659 8.4666659" xmlns="http://www.w3.org/2000/svg">
	<g transform="translate(0 -288.53)">
		<g transform="matrix(11.352 0 0 11.906 8.5863 25.33)">
			<g fill="none" fill-rule="evenodd">
				<g transform="matrix(.021189 0 0 .022308 .089842 22.692)">
					<g transform="translate(-37.338 -24.253)" fill="#9aa7b0">
						<path d="m12 0-8 8h8z" opacity=".7" style="isolation:isolate"/>
						<path
							d="m14 0v10h-10v20l9.8584-0.02112c-2.0118-3.7126 0.59992-1.7439-0.19189-5.355-1.3674-1.0831-1.9744-6.5949 1.1787-9.5515 2.4202-2.2694 3.5529-3.6551 11.155-3.6685v-11.404z"
							opacity=".7" style="isolation:isolate"/>
					</g>
				</g>
			</g>
		</g>
	</g>
	<g transform="matrix(1.8608 0 0 1.8608 78.139 78.227)">
		<circle transform="matrix(.99851 .054558 -.057623 .99834 0 0)" cx="-40.792" cy="-36.46" r=".5" fill="#fff"/>
		<circle cx="-38.447" cy="-38.792" r=".2" stroke-opacity=".9"/>
		<path
			d="m-38.627-39.245c-0.61803 0-0.61803 0.61803-0.61803 0.61803s0 0.61802 0.61803 0.61802c0.61802 0 0.61802-0.61802 0.61802-0.61802s0-0.61803-0.61802-0.61803z"
			fill="none" stroke="#2b2b2b" stroke-opacity=".9" stroke-width=".3px"/>
		<path d="m-38.627-39.245v-0.50241 0.01349" fill="none" stroke="#2b2b2b" stroke-opacity=".9" stroke-width=".3px"/>
		<path d="m-37.597-38.627c0-1.236-1.03-1.1204-1.03-1.1204s-1.03-0.11562-1.03 1.1931" fill="none" stroke="#2b2b2b"
					stroke-opacity=".9" stroke-width=".3px"/>
		<path d="m-39.097-38.147-0.55948 0.5505" fill="none" stroke="#2b2b2b" stroke-opacity=".9" stroke-width=".3px"/>
		<path d="m-38.113-38.152 0.51634 0.55499" fill="none" stroke="#2b2b2b" stroke-opacity=".9" stroke-width=".3px"/>
		<circle cx="-38.493" cy="-38.76" r=".038459" fill="#f9f9f9" opacity=".771"/>
		<circle cx="-38.434" cy="-38.86" r=".05344" fill="#f9f9f9" opacity=".771"/>
	</g>
</svg>
